<svg xmlns="http://www.w3.org/2000/svg" viewBox="0 0 64 64" width="64" height="64">
  <rect width="64" height="64" rx="12" fill="#0A0A0B"/>
  <rect x="2" y="2" width="60" height="60" rx="10" fill="none" stroke="#FF6B00" stroke-width="2"/>
  <!-- Fuel Tanker Cab & Flame Graphic -->
  <path d="M14 42h36c1.1 0 2-.9 2-2v-12c0-4.4-3.6-8-8-8H20c-4.4 0-8 3.6-8 8v12c0 1.1.9 2 2 2z" fill="#18181B" stroke="#FF6B00" stroke-width="2"/>
  <!-- Tanker Compartment Divider Lines -->
  <path d="M24 20v22M34 20v22M44 20v22" stroke="#FF6B00" stroke-width="1.5" stroke-dasharray="2 2"/>
  <!-- Wheels -->
  <circle cx="20" cy="45" r="4" fill="#0A0A0B" stroke="#FF6B00" stroke-width="2"/>
  <circle cx="44" cy="45" r="4" fill="#0A0A0B" stroke="#FF6B00" stroke-width="2"/>
  <!-- Stylized Flame in Center -->
  <path d="M32 24c0 3.5-2.5 5-2.5 7.5a2.5 2.5 0 0 0 5 0c0-2.5-2.5-4-2.5-7.5z" fill="#FF6B00"/>
</svg>
